<svg xmlns="http://www.w3.org/2000/svg" viewBox="0 0 506.45 506.45"><defs><style>.cls-1{fill:#323232;stroke:#4d4d4d;stroke-miterlimit:10;stroke-width:2.64px;}</style></defs><g id="Layer_2" data-name="Layer 2"><g id="Layer_1-2" data-name="Layer 1"><path class="cls-1" d="M1.32,343.19V163.26c1.89-.93.9-2.64,1-4,.7-17.44,1.8-34.84,6.1-51.85C19.18,64.68,44,33.53,84.81,15.86c22.3-9.65,46-12.42,70-13.45,3.13-.13,6.5,1,9.45-1.09H341.19c1.32,2,3.33.89,5,.94C363.94,2.9,381.66,4,399,8.38,441.77,19.17,472.92,44,490.59,84.81c9.65,22.3,12.42,46,13.45,70,.13,3.14-1,6.5,1.09,9.45V343.19c-1.89.93-.91,2.64-1,4-.7,17.44-1.81,34.83-6.1,51.84-10.8,42.78-35.62,73.93-76.44,91.6-22.29,9.65-46,12.41-70,13.46-3.47.15-7.16-1.05-10.45,1.08H163.26c-.93-1.89-2.64-.9-4-1-15.77-.67-31.5-1.63-47-5C73.48,490.8,43,470.56,22.86,435.9,10.29,414.22,5.15,390.32,3.24,365.55,2.67,358.1,3.48,350.51,1.32,343.19Zm252.26-296c-21.14,0-42.29-.18-63.43.06-19.79.21-39.62.3-59.27,3.15-18.71,2.71-36.09,8.72-50.69,21.4C59.76,89.5,51.85,113,49.34,138.85c-2.86,29.53-2.13,59.18-2.43,88.79s0,58.94.28,88.41c.21,19.79.31,39.62,3.13,59.27,2.71,18.89,8.76,36.41,21.61,51.12,17.8,20.39,41.29,28.2,67.17,30.69,29.37,2.83,58.85,2.1,88.29,2.41,29.63.31,59.28,0,88.91-.28,19.79-.21,39.63-.31,59.27-3.16,18.88-2.74,36.37-8.85,51.06-21.75,20.19-17.74,28-41.07,30.48-66.76,2.87-29.53,2.18-59.18,2.42-88.79.28-33.46,0-66.93-.49-100.38-.31-19.61-.44-39.31-5-58.57C446.3,87,426.8,64.67,394.24,54.44c-12.78-4-26-5.45-39.32-6.12C321.16,46.64,287.36,47.24,253.58,47.14Z"/><path class="cls-1" d="M382.69,253.26a129.47,129.47,0,1,1-129.43-129.5A129.39,129.39,0,0,1,382.69,253.26ZM253.18,169.43c-45.73,0-83.73,37.59-83.75,82.83,0,46.69,37.16,84.74,82.83,84.76,46.91,0,84.76-37.19,84.76-83.34A83.87,83.87,0,0,0,253.18,169.43Z"/><path class="cls-1" d="M418,118.71a30.4,30.4,0,1,1-30.57-30.26A30.46,30.46,0,0,1,418,118.71Z"/></g></g></svg>