<svg xmlns="http://www.w3.org/2000/svg" viewBox="0 0 467.38 448.96"><defs><style>.cls-1{fill:#323232;}</style></defs><g id="Layer_2" data-name="Layer 2"><g id="Layer_1-2" data-name="Layer 1"><path class="cls-1" d="M131.24,168.24C131.51,74.13,208.93-2,303.66.16,395.33,2.3,469.12,78.79,467.35,172c-1.73,90.85-77.08,166.57-171.63,164.53C205.84,334.59,131.22,261,131.24,168.24Z"/><path class="cls-1" d="M.06,224.23Q.06,113.5,0,2.78C0,.39.65,0,2.87,0Q41.34.14,79.81,0c1.77,0,2.42.29,2.42,2.28q-.09,222.18,0,444.36c0,1.69-.27,2.29-2.17,2.29q-38.82-.1-77.65,0C.24,449,0,448.25,0,446.41Q.1,335.32.06,224.23Z"/></g></g></svg>