<svg xmlns="http://www.w3.org/2000/svg" viewBox="0 0 1271.4 443.53"><defs><style>.cls-1{fill:#ffdff2;}</style></defs><g id="Layer_2" data-name="Layer 2"><g id="Layer_1-2" data-name="Layer 1"><path class="cls-1" d="M203.23,5.16a58.77,58.77,0,0,0-14.55-1.84H58.22A58.25,58.25,0,0,0,0,61.63L.44,382.54a58.25,58.25,0,0,0,58.23,58.15H90.78A58.24,58.24,0,0,0,149,382.45V298.33h8.59a58.43,58.43,0,0,0,8.85-.66L196,161.59a58.65,58.65,0,0,0-10.79-7.54h3.5a61.73,61.73,0,0,0,9.09-.69l19.91-91.8H243.9l3,13.88V61.56A58.23,58.23,0,0,0,203.23,5.16ZM188.68,95.82H90.78V205.34h66.81v34.77H90.78V382.45H58.67L58.22,61.56H188.68Z"/><path class="cls-1" d="M188.68,154.05h-3.5A58.65,58.65,0,0,1,196,161.59l1.8-8.23A61.73,61.73,0,0,1,188.68,154.05ZM157.59,298.33H149v79.78l17.44-80.44A58.43,58.43,0,0,1,157.59,298.33Zm31.09-144.28h-3.5A58.65,58.65,0,0,1,196,161.59l1.8-8.23A61.73,61.73,0,0,1,188.68,154.05ZM157.59,298.33H149v79.78l17.44-80.44A58.43,58.43,0,0,1,157.59,298.33Zm31.09-144.28h-3.5A58.65,58.65,0,0,1,196,161.59l1.8-8.23A61.73,61.73,0,0,1,188.68,154.05ZM157.59,298.33H149v79.78l17.44-80.44A58.43,58.43,0,0,1,157.59,298.33Zm31.09-144.28h-3.5A58.65,58.65,0,0,1,196,161.59l1.8-8.23A61.73,61.73,0,0,1,188.68,154.05ZM157.59,298.33H149v79.78l17.44-80.44A58.43,58.43,0,0,1,157.59,298.33Zm31.09-144.28h-3.5A58.65,58.65,0,0,1,196,161.59l1.8-8.23A61.73,61.73,0,0,1,188.68,154.05ZM157.59,298.33H149v79.78l17.44-80.44A58.43,58.43,0,0,1,157.59,298.33Zm31.09-144.28h-3.5A58.65,58.65,0,0,1,196,161.59l1.8-8.23A61.73,61.73,0,0,1,188.68,154.05ZM157.59,298.33H149v79.78l17.44-80.44A58.43,58.43,0,0,1,157.59,298.33Zm31.09-144.28h-3.5A58.65,58.65,0,0,1,196,161.59l1.8-8.23A61.73,61.73,0,0,1,188.68,154.05ZM157.59,298.33H149v79.78l17.44-80.44A58.43,58.43,0,0,1,157.59,298.33Zm31.09-144.28h-3.5A58.65,58.65,0,0,1,196,161.59l1.8-8.23A61.73,61.73,0,0,1,188.68,154.05ZM149,298.33v79.78l17.44-80.44a58.43,58.43,0,0,1-8.85.66Zm221,71.84-10-46.55v58.83H327V170.57l-7.16-33.19-19-88.08a58.25,58.25,0,0,0-56.92-46H217.68a58.32,58.32,0,0,0-56.9,45.9l-2.69,12.34h30.59V95.82h-38L126.9,205.34h30.69v34.77H119.36l-28.19,130c-.15.7-.28,1.35-.39,2.05a54.86,54.86,0,0,0-1,10.28,58.31,58.31,0,0,0,58.22,58.24H182a58.23,58.23,0,0,0,48.6-26.16,58.21,58.21,0,0,0,48.6,26.16h33.91a58.43,58.43,0,0,0,32.47-9.93A56.48,56.48,0,0,0,358.39,419,58.34,58.34,0,0,0,370,370.17Zm-167.68-79.6-.11.47L182,382.45H148.05l.95-4.34,17.44-80.44L196,161.59l1.8-8.23,19.91-91.8H243.9l3,13.88,21.84,101.35,44.34,205.66H279.17L268.74,332l-8.55-41.45Zm-44.73,7.76H149v79.78l17.44-80.44A58.43,58.43,0,0,1,157.59,298.33Zm31.09-144.28h-3.5A58.65,58.65,0,0,1,196,161.59l1.8-8.23A61.73,61.73,0,0,1,188.68,154.05ZM157.59,298.33H149v79.78l17.44-80.44A58.43,58.43,0,0,1,157.59,298.33Zm31.09-144.28h-3.5A58.65,58.65,0,0,1,196,161.59l1.8-8.23A61.73,61.73,0,0,1,188.68,154.05ZM157.59,298.33H149v79.78l17.44-80.44A58.43,58.43,0,0,1,157.59,298.33Zm31.09-144.28h-3.5A58.65,58.65,0,0,1,196,161.59l1.8-8.23A61.73,61.73,0,0,1,188.68,154.05ZM157.59,298.33H149v79.78l17.44-80.44A58.43,58.43,0,0,1,157.59,298.33Zm31.09-144.28h-3.5A58.65,58.65,0,0,1,196,161.59l1.8-8.23A61.73,61.73,0,0,1,188.68,154.05ZM157.59,298.33H149v79.78l17.44-80.44A58.43,58.43,0,0,1,157.59,298.33Zm31.09-144.28h-3.5A58.65,58.65,0,0,1,196,161.59l1.8-8.23A61.73,61.73,0,0,1,188.68,154.05ZM157.59,298.33H149v79.78l17.44-80.44A58.43,58.43,0,0,1,157.59,298.33Zm31.09-144.28h-3.5A58.65,58.65,0,0,1,196,161.59l1.8-8.23A61.73,61.73,0,0,1,188.68,154.05ZM157.59,298.33H149v79.78l17.44-80.44A58.43,58.43,0,0,1,157.59,298.33Zm31.09-144.28h-3.5A58.65,58.65,0,0,1,196,161.59l1.8-8.23A61.73,61.73,0,0,1,188.68,154.05Zm0,0h-3.5A58.65,58.65,0,0,1,196,161.59l1.8-8.23A61.73,61.73,0,0,1,188.68,154.05Z"/><path class="cls-1" d="M369,4a60.81,60.81,0,0,0-9-.7H327a58.27,58.27,0,0,0-58.24,58.24V176.79l44.34,205.66H279.17L268.74,332v50.43A58.22,58.22,0,0,0,320,440.26a56.72,56.72,0,0,0,6.94.43h33a60.81,60.81,0,0,0,9-.7,58.25,58.25,0,0,0,49.19-57.54H378V61.56H410.6V347.69h7.59V61.56A58.25,58.25,0,0,0,369,4ZM327,382.45V61.56h33V382.45Z"/><path class="cls-1" d="M498.63,358.42a83.58,83.58,0,0,1-7-15.41q-7.18-21-8.63-53.44c-1.08-.07-2.15-.11-3.23-.11h-11V61.56a57.75,57.75,0,0,0-4.33-22.08v0A58.3,58.3,0,0,0,410.6,3.32H378a61.26,61.26,0,0,0-9,.7,58.25,58.25,0,0,0-49.18,57.54V382.45a58.08,58.08,0,0,0,25.73,48.31A57.5,57.5,0,0,0,369,440a61.26,61.26,0,0,0,9,.7H479.78a58.18,58.18,0,0,0,58.19-57Q510.64,378.69,498.63,358.42ZM327,382.45V61.56h33V382.45Zm51.06,0V61.56H410.6V347.69h69.18v34.76Zm141.11-77.66q2,15.81,6.15,26.23,4.08,10.19,12.64,15.06A58,58,0,0,0,519.15,304.79Z"/><path class="cls-1" d="M579.58,98.68c-5.23-3.8-11.84-5.71-19.76-5.71q-19.07,0-29.28,13.11c-6.85,8.74-10.24,19.74-10.24,33.08q0,12.39,8.8,26t16.69,21.18c5.24,5.08,13.86,13,26,23.82v-.48c4.65,4.23,8.92,8.13,12.82,11.76V103.47A25.14,25.14,0,0,0,579.58,98.68Zm5,172.51v71.15a32.56,32.56,0,0,0,3.84-3.69q10.47-11.89,10.48-32.86Q598.89,290,584.57,271.19ZM596,166.31q0-16.69-1-27.63a120.24,120.24,0,0,0-4.26-22.61,35.81,35.81,0,0,0-6.22-12.6,25.14,25.14,0,0,0-5-4.79c-5.23-3.8-11.84-5.71-19.76-5.71q-19.07,0-29.28,13.11c-6.85,8.74-10.24,19.74-10.24,33.08q0,12.39,8.8,26t16.69,21.18c5.24,5.08,13.86,13,26,23.82v-.48c4.65,4.23,8.92,8.13,12.82,11.76q10.9,10.16,17.89,17.28,10.68,11,21,29.53t10.24,37.13h9.15v-139Zm0,0q0-16.69-1-27.63a120.24,120.24,0,0,0-4.26-22.61,35.81,35.81,0,0,0-6.22-12.6,25.14,25.14,0,0,0-5-4.79c-5.23-3.8-11.84-5.71-19.76-5.71q-19.07,0-29.28,13.11c-6.85,8.74-10.24,19.74-10.24,33.08q0,12.39,8.8,26t16.69,21.18c5.24,5.08,13.86,13,26,23.82v-.48c4.65,4.23,8.92,8.13,12.82,11.76q10.9,10.16,17.89,17.28,10.68,11,21,29.53t10.24,37.13h9.15v-139ZM584.57,271.19v71.15a32.56,32.56,0,0,0,3.84-3.69q10.47-11.89,10.48-32.86Q598.89,290,584.57,271.19ZM483,289.57c-1.08-.07-2.15-.11-3.23-.11h-11V222.23H454.05a58.21,58.21,0,0,0-29.59,50.71c0,28.94,2.61,53.73,8,74.75h47.36L491.64,343Q484.46,322,483,289.57ZM596,166.31q0-16.69-1-27.63a120.24,120.24,0,0,0-4.26-22.61,35.81,35.81,0,0,0-6.22-12.6,25.14,25.14,0,0,0-5-4.79c-5.23-3.8-11.84-5.71-19.76-5.71q-19.07,0-29.28,13.11c-6.85,8.74-10.24,19.74-10.24,33.08q0,12.39,8.8,26t16.69,21.18c5.24,5.08,13.86,13,26,23.82v-.48c4.65,4.23,8.92,8.13,12.82,11.76q10.9,10.16,17.89,17.28,10.68,11,21,29.53t10.24,37.13h9.15v-139ZM584.57,271.19v71.15a32.56,32.56,0,0,0,3.84-3.69q10.47-11.89,10.48-32.86Q598.89,290,584.57,271.19ZM681,253.53V366.59a144.66,144.66,0,0,0,7.51-25.36,182.66,182.66,0,0,0,3.38-35.9A130.78,130.78,0,0,0,681,253.53Zm-96.42,17.66v71.15a32.56,32.56,0,0,0,3.84-3.69q10.47-11.89,10.48-32.86Q598.89,290,584.57,271.19Zm-5-172.51c-5.23-3.8-11.84-5.71-19.76-5.71q-19.07,0-29.28,13.11c-6.85,8.74-10.24,19.74-10.24,33.08q0,12.39,8.8,26t16.69,21.18c5.24,5.08,13.86,13,26,23.82v-.48c4.65,4.23,8.92,8.13,12.82,11.76V103.47A25.14,25.14,0,0,0,579.58,98.68Zm5,172.51v71.15a32.56,32.56,0,0,0,3.84-3.69q10.47-11.89,10.48-32.86Q598.89,290,584.57,271.19Zm-5-172.51c-5.23-3.8-11.84-5.71-19.76-5.71q-19.07,0-29.28,13.11c-6.85,8.74-10.24,19.74-10.24,33.08q0,12.39,8.8,26t16.69,21.18c5.24,5.08,13.86,13,26,23.82v-.48c4.65,4.23,8.92,8.13,12.82,11.76V103.47A25.14,25.14,0,0,0,579.58,98.68Zm5,172.51v71.15a32.56,32.56,0,0,0,3.84-3.69q10.47-11.89,10.48-32.86Q598.89,290,584.57,271.19Zm-5-172.51c-5.23-3.8-11.84-5.71-19.76-5.71q-19.07,0-29.28,13.11c-6.85,8.74-10.24,19.74-10.24,33.08q0,12.39,8.8,26t16.69,21.18c5.24,5.08,13.86,13,26,23.82v-.48c4.65,4.23,8.92,8.13,12.82,11.76V103.47A25.14,25.14,0,0,0,579.58,98.68Zm5,172.51v71.15a32.56,32.56,0,0,0,3.84-3.69q10.47-11.89,10.48-32.86Q598.89,290,584.57,271.19Zm-5-172.51c-5.23-3.8-11.84-5.71-19.76-5.71q-19.07,0-29.28,13.11c-6.85,8.74-10.24,19.74-10.24,33.08q0,12.39,8.8,26t16.69,21.18c5.24,5.08,13.86,13,26,23.82v-.48c4.65,4.23,8.92,8.13,12.82,11.76V103.47A25.14,25.14,0,0,0,579.58,98.68Zm5,172.51v71.15a32.56,32.56,0,0,0,3.84-3.69q10.47-11.89,10.48-32.86Q598.89,290,584.57,271.19Zm-5-172.51c-5.23-3.8-11.84-5.71-19.76-5.71q-19.07,0-29.28,13.11c-6.85,8.74-10.24,19.74-10.24,33.08q0,12.39,8.8,26t16.69,21.18c5.24,5.08,13.86,13,26,23.82v-.48c4.65,4.23,8.92,8.13,12.82,11.76V103.47A25.14,25.14,0,0,0,579.58,98.68Zm5,172.51v71.15a32.56,32.56,0,0,0,3.84-3.69q10.47-11.89,10.48-32.86Q598.89,290,584.57,271.19Zm-5-172.51c-5.23-3.8-11.84-5.71-19.76-5.71q-19.07,0-29.28,13.11c-6.85,8.74-10.24,19.74-10.24,33.08q0,12.39,8.8,26t16.69,21.18c5.24,5.08,13.86,13,26,23.82v-.48c4.65,4.23,8.92,8.13,12.82,11.76V103.47A25.14,25.14,0,0,0,579.58,98.68Zm5,172.51v71.15a32.56,32.56,0,0,0,3.84-3.69q10.47-11.89,10.48-32.86Q598.89,290,584.57,271.19Zm-5-172.51c-5.23-3.8-11.84-5.71-19.76-5.71q-19.07,0-29.28,13.11c-6.85,8.74-10.24,19.74-10.24,33.08q0,12.39,8.8,26t16.69,21.18c5.24,5.08,13.86,13,26,23.82v-.48c4.65,4.23,8.92,8.13,12.82,11.76V103.47A25.14,25.14,0,0,0,579.58,98.68Zm5,172.51v71.15a32.56,32.56,0,0,0,3.84-3.69q10.47-11.89,10.48-32.86Q598.89,290,584.57,271.19Zm-5-172.51c-5.23-3.8-11.84-5.71-19.76-5.71q-19.07,0-29.28,13.11c-6.85,8.74-10.24,19.74-10.24,33.08q0,12.39,8.8,26t16.69,21.18c5.24,5.08,13.86,13,26,23.82v-.48c4.65,4.23,8.92,8.13,12.82,11.76V103.47A25.14,25.14,0,0,0,579.58,98.68Zm5,172.51v71.15a32.56,32.56,0,0,0,3.84-3.69q10.47-11.89,10.48-32.86Q598.89,290,584.57,271.19Zm-5-172.51c-5.23-3.8-11.84-5.71-19.76-5.71q-19.07,0-29.28,13.11c-6.85,8.74-10.24,19.74-10.24,33.08q0,12.39,8.8,26t16.69,21.18c5.24,5.08,13.86,13,26,23.82v-.48c4.65,4.23,8.92,8.13,12.82,11.76V103.47A25.14,25.14,0,0,0,579.58,98.68Zm5,172.51v71.15a32.56,32.56,0,0,0,3.84-3.69q10.47-11.89,10.48-32.86Q598.89,290,584.57,271.19Zm0-167.72a25.14,25.14,0,0,0-5-4.79c-5.23-3.8-11.84-5.71-19.76-5.71q-19.07,0-29.28,13.11c-6.85,8.74-10.24,19.74-10.24,33.08q0,12.39,8.8,26t16.69,21.18c5.24,5.08,13.86,13,26,23.82v-.48c4.65,4.23,8.92,8.13,12.82,11.76Zm58.24,278.74V61.3h27.72a108.37,108.37,0,0,0-13.34-20.15c-11-13-25.26-23.32-42.53-30.72,0,0-.09,0-.11-.06C598.44,3.47,580,0,559.82,0c-38,0-70.89,13.64-95.33,39.46v0c-.66.67-1.27,1.36-1.91,2.06-23.06,25.53-35.27,58.44-35.27,95.23q0,45.16,26.74,85.46a58.21,58.21,0,0,0-29.59,50.71c0,28.94,2.61,53.73,8,74.75h47.36v34.76H445.39c1,1.95,2.09,3.83,3.17,5.66,8.42,14.2,25.42,35.05,56.69,46.72,14.25,5.3,31.47,8.7,52.18,8.7,23.07,0,42-4.12,57.29-10.3A116.86,116.86,0,0,0,657.47,404a121,121,0,0,0,15.95-21.82Zm-28.2-17.61q-11.52,12.52-30,17.46a104.26,104.26,0,0,1-27.14,3.25A109.74,109.74,0,0,1,538,383.68q-27.33-5-39.34-25.26a83.58,83.58,0,0,1-7-15.41q-7.18-21-8.63-53.44-.36-8-.35-16.63h34.77a260.87,260.87,0,0,0,1.72,31.85q2,15.81,6.15,26.23,4.08,10.19,12.64,15.06,7.86,4.49,19.49,4.5,17.05,0,27.14-8.24a32.56,32.56,0,0,0,3.84-3.69q10.47-11.89,10.48-32.86,0-15.81-14.32-34.6-11.13-14.6-30.93-31.08l.47.47q-68.58-49-68.57-103.81,0-33.77,20.24-56.17t54-22.38a88.73,88.73,0,0,1,24.75,3.17,64.23,64.23,0,0,1,7.16,2.54q13.35,5.71,21,14.75c5.07,6,9,14.07,11.68,24a166.5,166.5,0,0,1,5.23,29.05c.78,9.37,1.2,20.88,1.2,34.53H596q0-16.69-1-27.63a120.24,120.24,0,0,0-4.26-22.61,35.81,35.81,0,0,0-6.22-12.6,25.14,25.14,0,0,0-5-4.79c-5.23-3.8-11.84-5.71-19.76-5.71q-19.07,0-29.28,13.11c-6.85,8.74-10.24,19.74-10.24,33.08q0,12.39,8.8,26t16.69,21.18c5.24,5.08,13.86,13,26,23.82v-.48c4.65,4.23,8.92,8.13,12.82,11.76q10.9,10.16,17.89,17.28,10.68,11,21,29.53t10.24,37.13Q633.66,343.87,614.61,364.6Zm-35-265.92c-5.23-3.8-11.84-5.71-19.76-5.71q-19.07,0-29.28,13.11c-6.85,8.74-10.24,19.74-10.24,33.08q0,12.39,8.8,26t16.69,21.18c5.24,5.08,13.86,13,26,23.82v-.48c4.65,4.23,8.92,8.13,12.82,11.76V103.47A25.14,25.14,0,0,0,579.58,98.68Zm5,172.51v71.15a32.56,32.56,0,0,0,3.84-3.69q10.47-11.89,10.48-32.86Q598.89,290,584.57,271.19Zm-5-172.51c-5.23-3.8-11.84-5.71-19.76-5.71q-19.07,0-29.28,13.11c-6.85,8.74-10.24,19.74-10.24,33.08q0,12.39,8.8,26t16.69,21.18c5.24,5.08,13.86,13,26,23.82v-.48c4.65,4.23,8.92,8.13,12.82,11.76V103.47A25.14,25.14,0,0,0,579.58,98.68Zm5,172.51v71.15a32.56,32.56,0,0,0,3.84-3.69q10.47-11.89,10.48-32.86Q598.89,290,584.57,271.19Zm-5-172.51c-5.23-3.8-11.84-5.71-19.76-5.71q-19.07,0-29.28,13.11c-6.85,8.74-10.24,19.74-10.24,33.08q0,12.39,8.8,26t16.69,21.18c5.24,5.08,13.86,13,26,23.82v-.48c4.65,4.23,8.92,8.13,12.82,11.76V103.47A25.14,25.14,0,0,0,579.58,98.68Zm5,172.51v71.15a32.56,32.56,0,0,0,3.84-3.69q10.47-11.89,10.48-32.86Q598.89,290,584.57,271.19Zm-5-172.51c-5.23-3.8-11.84-5.71-19.76-5.71q-19.07,0-29.28,13.11c-6.85,8.74-10.24,19.74-10.24,33.08q0,12.39,8.8,26t16.69,21.18c5.24,5.08,13.86,13,26,23.82v-.48c4.65,4.23,8.92,8.13,12.82,11.76V103.47A25.14,25.14,0,0,0,579.58,98.68Zm5,172.51v71.15a32.56,32.56,0,0,0,3.84-3.69q10.47-11.89,10.48-32.86Q598.89,290,584.57,271.19Zm-5-172.51c-5.23-3.8-11.84-5.71-19.76-5.71q-19.07,0-29.28,13.11c-6.85,8.74-10.24,19.74-10.24,33.08q0,12.39,8.8,26t16.69,21.18c5.24,5.08,13.86,13,26,23.82v-.48c4.65,4.23,8.92,8.13,12.82,11.76V103.47A25.14,25.14,0,0,0,579.58,98.68Zm5,172.51v71.15a32.56,32.56,0,0,0,3.84-3.69q10.47-11.89,10.48-32.86Q598.89,290,584.57,271.19Zm-5-172.51c-5.23-3.8-11.84-5.71-19.76-5.71q-19.07,0-29.28,13.11c-6.85,8.74-10.24,19.74-10.24,33.08q0,12.39,8.8,26t16.69,21.18c5.24,5.08,13.86,13,26,23.82v-.48c4.65,4.23,8.92,8.13,12.82,11.76V103.47A25.14,25.14,0,0,0,579.58,98.68Zm5,172.51v71.15a32.56,32.56,0,0,0,3.84-3.69q10.47-11.89,10.48-32.86Q598.89,290,584.57,271.19Zm-5-172.51c-5.23-3.8-11.84-5.71-19.76-5.71q-19.07,0-29.28,13.11c-6.85,8.74-10.24,19.74-10.24,33.08q0,12.39,8.8,26t16.69,21.18c5.24,5.08,13.86,13,26,23.82v-.48c4.65,4.23,8.92,8.13,12.82,11.76V103.47A25.14,25.14,0,0,0,579.58,98.68Zm5,172.51v71.15a32.56,32.56,0,0,0,3.84-3.69q10.47-11.89,10.48-32.86Q598.89,290,584.57,271.19Zm-5-172.51c-5.23-3.8-11.84-5.71-19.76-5.71q-19.07,0-29.28,13.11c-6.85,8.74-10.24,19.74-10.24,33.08q0,12.39,8.8,26t16.69,21.18c5.24,5.08,13.86,13,26,23.82v-.48c4.65,4.23,8.92,8.13,12.82,11.76V103.47A25.14,25.14,0,0,0,579.58,98.68Zm5,172.51v71.15a32.56,32.56,0,0,0,3.84-3.69q10.47-11.89,10.48-32.86Q598.89,290,584.57,271.19Zm-5-172.51c-5.23-3.8-11.84-5.71-19.76-5.71q-19.07,0-29.28,13.11c-6.85,8.74-10.24,19.74-10.24,33.08q0,12.39,8.8,26t16.69,21.18c5.24,5.08,13.86,13,26,23.82v-.48c4.65,4.23,8.92,8.13,12.82,11.76V103.47A25.14,25.14,0,0,0,579.58,98.68Zm5,172.51v71.15a32.56,32.56,0,0,0,3.84-3.69q10.47-11.89,10.48-32.86Q598.89,290,584.57,271.19Zm-5-172.51c-5.23-3.8-11.84-5.71-19.76-5.71q-19.07,0-29.28,13.11c-6.85,8.74-10.24,19.74-10.24,33.08q0,12.39,8.8,26t16.69,21.18c5.24,5.08,13.86,13,26,23.82v-.48c4.65,4.23,8.92,8.13,12.82,11.76V103.47A25.14,25.14,0,0,0,579.58,98.68Zm5,172.51v71.15a32.56,32.56,0,0,0,3.84-3.69q10.47-11.89,10.48-32.86Q598.89,290,584.57,271.19ZM483,289.57c-1.08-.07-2.15-.11-3.23-.11h-11V222.23H454.05a58.21,58.21,0,0,0-29.59,50.71c0,28.94,2.61,53.73,8,74.75h47.36L491.64,343Q484.46,322,483,289.57Zm101.56-18.38v71.15a32.56,32.56,0,0,0,3.84-3.69q10.47-11.89,10.48-32.86Q598.89,290,584.57,271.19ZM596,166.31q0-16.69-1-27.63a120.24,120.24,0,0,0-4.26-22.61,35.81,35.81,0,0,0-6.22-12.6,25.14,25.14,0,0,0-5-4.79c-5.23-3.8-11.84-5.71-19.76-5.71q-19.07,0-29.28,13.11c-6.85,8.74-10.24,19.74-10.24,33.08q0,12.39,8.8,26t16.69,21.18c5.24,5.08,13.86,13,26,23.82v-.48c4.65,4.23,8.92,8.13,12.82,11.76q10.9,10.16,17.89,17.28,10.68,11,21,29.53t10.24,37.13h9.15v-139Zm0,0q0-16.69-1-27.63a120.24,120.24,0,0,0-4.26-22.61,35.81,35.81,0,0,0-6.22-12.6,25.14,25.14,0,0,0-5-4.79c-5.23-3.8-11.84-5.71-19.76-5.71q-19.07,0-29.28,13.11c-6.85,8.74-10.24,19.74-10.24,33.08q0,12.39,8.8,26t16.69,21.18c5.24,5.08,13.86,13,26,23.82v-.48c4.65,4.23,8.92,8.13,12.82,11.76q10.9,10.16,17.89,17.28,10.68,11,21,29.53t10.24,37.13h9.15v-139ZM584.57,271.19v71.15a32.56,32.56,0,0,0,3.84-3.69q10.47-11.89,10.48-32.86Q598.89,290,584.57,271.19Zm-5-172.51c-5.23-3.8-11.84-5.71-19.76-5.71q-19.07,0-29.28,13.11c-6.85,8.74-10.24,19.74-10.24,33.08q0,12.39,8.8,26t16.69,21.18c5.24,5.08,13.86,13,26,23.82v-.48c4.65,4.23,8.92,8.13,12.82,11.76V103.47A25.14,25.14,0,0,0,579.58,98.68Z"/><path class="cls-1" d="M584.57,271.19v71.15a32.56,32.56,0,0,0,3.84-3.69q10.47-11.89,10.48-32.86Q598.89,290,584.57,271.19ZM723.7,237.48q-16.5,2.86-42.71,2.85V366.59a144.66,144.66,0,0,0,7.51-25.36L702,344.14,725.18,237.2C724.7,237.31,724.2,237.39,723.7,237.48Zm0,0q-16.5,2.86-42.71,2.85V366.59a144.66,144.66,0,0,0,7.51-25.36L702,344.14,725.18,237.2C724.7,237.31,724.2,237.39,723.7,237.48ZM596,166.31q0-16.69-1-27.63a120.24,120.24,0,0,0-4.26-22.61,35.81,35.81,0,0,0-6.22-12.6V221.39q10.9,10.16,17.89,17.28,10.68,11,21,29.53t10.24,37.13h9.15v-139ZM723.7,237.48q-16.5,2.86-42.71,2.85V366.59a144.66,144.66,0,0,0,7.51-25.36L702,344.14,725.18,237.2C724.7,237.31,724.2,237.39,723.7,237.48ZM596,166.31q0-16.69-1-27.63a120.24,120.24,0,0,0-4.26-22.61,35.81,35.81,0,0,0-6.22-12.6V221.39q10.9,10.16,17.89,17.28,10.68,11,21,29.53t10.24,37.13h9.15v-139ZM723.7,237.48q-16.5,2.86-42.71,2.85V366.59a144.66,144.66,0,0,0,7.51-25.36L702,344.14,725.18,237.2C724.7,237.31,724.2,237.39,723.7,237.48ZM596,166.31q0-16.69-1-27.63a120.24,120.24,0,0,0-4.26-22.61,35.81,35.81,0,0,0-6.22-12.6V221.39q10.9,10.16,17.89,17.28,10.68,11,21,29.53t10.24,37.13h9.15v-139ZM723.7,237.48q-16.5,2.86-42.71,2.85V366.59a144.66,144.66,0,0,0,7.51-25.36L702,344.14,725.18,237.2C724.7,237.31,724.2,237.39,723.7,237.48ZM596,166.31q0-16.69-1-27.63a120.24,120.24,0,0,0-4.26-22.61,35.81,35.81,0,0,0-6.22-12.6V221.39q10.9,10.16,17.89,17.28,10.68,11,21,29.53t10.24,37.13h9.15v-139ZM723.7,237.48q-16.5,2.86-42.71,2.85V366.59a144.66,144.66,0,0,0,7.51-25.36L702,344.14,725.18,237.2C724.7,237.31,724.2,237.39,723.7,237.48ZM596,166.31q0-16.69-1-27.63a120.24,120.24,0,0,0-4.26-22.61,35.81,35.81,0,0,0-6.22-12.6V221.39q10.9,10.16,17.89,17.28,10.68,11,21,29.53t10.24,37.13h9.15v-139ZM812.66,48.88a114,114,0,0,0-31.73-27.75C763.41,10.74,740,3.08,709,3.08h-66.2A58.18,58.18,0,0,0,584.57,61.3v.09a64.23,64.23,0,0,1,7.16,2.54q13.35,5.71,21,14.75c5.07,6,9,14.07,11.68,24a166.5,166.5,0,0,1,5.23,29.05c.78,9.37,1.2,20.88,1.2,34.53H596q0-16.69-1-27.63a120.24,120.24,0,0,0-4.26-22.61,35.81,35.81,0,0,0-6.22-12.6V221.39q10.9,10.16,17.89,17.28,10.68,11,21,29.53t10.24,37.13q0,38.54-19,59.27-11.52,12.52-30,17.46v.15a58.19,58.19,0,0,0,58.24,58.22H681a58.27,58.27,0,0,0,58.22-58.22V293.79a157.51,157.51,0,0,0,36-12.47l20.18-93,27.14-125A134.78,134.78,0,0,0,812.66,48.88ZM782,185.4a94.51,94.51,0,0,1-3.82,12.79Q771,217,755.59,225.81a97.35,97.35,0,0,1-30.41,11.39c-.48.11-1,.19-1.48.28q-16.5,2.86-42.71,2.85V382.21H642.81V61.3H709c21.72,0,38.62,5.38,50.83,16.17a53.75,53.75,0,0,1,7,7.41q18.57,23.57,18.56,65Q785.43,170.15,782,185.4ZM596,166.31q0-16.69-1-27.63a120.24,120.24,0,0,0-4.26-22.61,35.81,35.81,0,0,0-6.22-12.6V221.39q10.9,10.16,17.89,17.28,10.68,11,21,29.53t10.24,37.13h9.15v-139ZM723.7,237.48q-16.5,2.86-42.71,2.85V366.59a144.66,144.66,0,0,0,7.51-25.36L702,344.14,725.18,237.2C724.7,237.31,724.2,237.39,723.7,237.48ZM596,166.31q0-16.69-1-27.63a120.24,120.24,0,0,0-4.26-22.61,35.81,35.81,0,0,0-6.22-12.6V221.39q10.9,10.16,17.89,17.28,10.68,11,21,29.53t10.24,37.13h9.15v-139ZM723.7,237.48q-16.5,2.86-42.71,2.85V366.59a144.66,144.66,0,0,0,7.51-25.36L702,344.14,725.18,237.2C724.7,237.31,724.2,237.39,723.7,237.48ZM596,166.31q0-16.69-1-27.63a120.24,120.24,0,0,0-4.26-22.61,35.81,35.81,0,0,0-6.22-12.6V221.39q10.9,10.16,17.89,17.28,10.68,11,21,29.53t10.24,37.13h9.15v-139ZM723.7,237.48q-16.5,2.86-42.71,2.85V366.59a144.66,144.66,0,0,0,7.51-25.36L702,344.14,725.18,237.2C724.7,237.31,724.2,237.39,723.7,237.48ZM596,166.31q0-16.69-1-27.63a120.24,120.24,0,0,0-4.26-22.61,35.81,35.81,0,0,0-6.22-12.6V221.39q10.9,10.16,17.89,17.28,10.68,11,21,29.53t10.24,37.13h9.15v-139ZM723.7,237.48q-16.5,2.86-42.71,2.85V366.59a144.66,144.66,0,0,0,7.51-25.36L702,344.14,725.18,237.2C724.7,237.31,724.2,237.39,723.7,237.48ZM596,166.31q0-16.69-1-27.63a120.24,120.24,0,0,0-4.26-22.61,35.81,35.81,0,0,0-6.22-12.6V221.39q10.9,10.16,17.89,17.28,10.68,11,21,29.53t10.24,37.13h9.15v-139ZM723.7,237.48q-16.5,2.86-42.71,2.85V366.59a144.66,144.66,0,0,0,7.51-25.36L702,344.14,725.18,237.2C724.7,237.31,724.2,237.39,723.7,237.48ZM596,166.31q0-16.69-1-27.63a120.24,120.24,0,0,0-4.26-22.61,35.81,35.81,0,0,0-6.22-12.6V221.39q10.9,10.16,17.89,17.28,10.68,11,21,29.53t10.24,37.13h9.15v-139ZM723.7,237.48q-16.5,2.86-42.71,2.85V366.59a144.66,144.66,0,0,0,7.51-25.36L702,344.14,725.18,237.2C724.7,237.31,724.2,237.39,723.7,237.48Z"/><path class="cls-1" d="M739.21,293.79v88.42l14,.24,21.93-101.13A157.51,157.51,0,0,1,739.21,293.79Zm126.14-3.22H860v4.77c0,33.61,7.32,62.92,21.79,87.34l2.47-.5Zm71.69,70q-11.74-15.48-16.14-37.07a142.17,142.17,0,0,1-2.64-28.15V148.2a139.2,139.2,0,0,1,2.83-28.92L906,49.3A56.89,56.89,0,0,0,901.38,36a58.19,58.19,0,0,0-52.3-32.64H822.86A58.17,58.17,0,0,0,766,49.22l-6.12,28.25a53.75,53.75,0,0,1,7,7.41q18.55,23.57,18.56,65,0,20.29-3.42,35.54a94.51,94.51,0,0,1-3.82,12.79q-7.25,18.84-22.6,27.62a97.35,97.35,0,0,1-30.41,11.39L702,344.14l-5.63,26A58.12,58.12,0,0,0,707.91,419a56,56,0,0,0,9,9,58.24,58.24,0,0,0,36.3,12.71h33.91a58.2,58.2,0,0,0,48.59-26.16,58.23,58.23,0,0,0,48.61,26.16h16.7c22.34.34,38.65-3.78,43.5-6.27a67.74,67.74,0,0,0,9.33-5.92c1-.8,2-1.64,3-2.53a60,60,0,0,0,6.65-7,56.91,56.91,0,0,0,9.32-16.39,58,58,0,0,0,3.6-19.59C960.1,379.57,945.76,372.08,937,360.56Zm-129.54-70-20.35,91.88H753.24l21.93-101.13,20.18-93,27.14-125,.37-1.71h26.22l12.73,59.07,44.42,206,12,55.81H884.35l-.05-.27-18.95-91.61Zm144.23-29.19v34q0,24.24,10.17,40a26.55,26.55,0,0,0,7.38,7.41Z"/><path class="cls-1" d="M1027.5,104.92a34.42,34.42,0,0,0-9.18-7.41c-5.29-3-11.69-4.54-19.24-4.54-14.17,0-30,5.23-37,15.72s-10.39,23.65-10.39,39.51V295.34q0,24.24,10.17,40a26.55,26.55,0,0,0,7.38,7.41c7.93,5.54,19.08,8.31,29.36,8.31q17.18,0,26.45-11a42.4,42.4,0,0,0,2.75-3.58ZM1010,222.47v-1.41c.39.26.8.48,1.19.7Zm17.55-117.55a34.42,34.42,0,0,0-9.18-7.41c-5.29-3-11.69-4.54-19.24-4.54-14.17,0-30,5.23-37,15.72s-10.39,23.65-10.39,39.51V295.34q0,24.24,10.17,40a26.55,26.55,0,0,0,7.38,7.41c7.93,5.54,19.08,8.31,29.36,8.31q17.18,0,26.45-11a42.4,42.4,0,0,0,2.75-3.58ZM1010,222.47v-1.41c.39.26.8.48,1.19.7Zm17.55-117.55a34.42,34.42,0,0,0-9.18-7.41c-5.29-3-11.69-4.54-19.24-4.54-14.17,0-30,5.23-37,15.72s-10.39,23.65-10.39,39.51V295.34q0,24.24,10.17,40a26.55,26.55,0,0,0,7.38,7.41c7.93,5.54,19.08,8.31,29.36,8.31q17.18,0,26.45-11a42.4,42.4,0,0,0,2.75-3.58ZM1010,222.47v-1.41c.39.26.8.48,1.19.7Zm17.55-117.55a34.42,34.42,0,0,0-9.18-7.41c-5.29-3-11.69-4.54-19.24-4.54-14.17,0-30,5.23-37,15.72s-10.39,23.65-10.39,39.51V295.34q0,24.24,10.17,40a26.55,26.55,0,0,0,7.38,7.41c7.93,5.54,19.08,8.31,29.36,8.31q17.18,0,26.45-11a42.4,42.4,0,0,0,2.75-3.58ZM1010,222.47v-1.41c.39.26.8.48,1.19.7Zm17.55-117.55a34.42,34.42,0,0,0-9.18-7.41c-5.29-3-11.69-4.54-19.24-4.54-14.17,0-30,5.23-37,15.72s-10.39,23.65-10.39,39.51V295.34q0,24.24,10.17,40a26.55,26.55,0,0,0,7.38,7.41c7.93,5.54,19.08,8.31,29.36,8.31q17.18,0,26.45-11a42.4,42.4,0,0,0,2.75-3.58ZM1010,222.47v-1.41c.39.26.8.48,1.19.7Zm17.55-117.55a34.42,34.42,0,0,0-9.18-7.41c-5.29-3-11.69-4.54-19.24-4.54-14.17,0-30,5.23-37,15.72s-10.39,23.65-10.39,39.51V295.34q0,24.24,10.17,40a26.55,26.55,0,0,0,7.38,7.41c7.93,5.54,19.08,8.31,29.36,8.31q17.18,0,26.45-11a42.4,42.4,0,0,0,2.75-3.58ZM1010,222.47v-1.41c.39.26.8.48,1.19.7Zm17.55-117.55a34.42,34.42,0,0,0-9.18-7.41c-5.29-3-11.69-4.54-19.24-4.54-14.17,0-30,5.23-37,15.72s-10.39,23.65-10.39,39.51V295.34q0,24.24,10.17,40a26.55,26.55,0,0,0,7.38,7.41c7.93,5.54,19.08,8.31,29.36,8.31q17.18,0,26.45-11a42.4,42.4,0,0,0,2.75-3.58ZM1010,222.47v-1.41c.39.26.8.48,1.19.7Zm17.55-117.55a34.42,34.42,0,0,0-9.18-7.41c-5.29-3-11.69-4.54-19.24-4.54-14.17,0-30,5.23-37,15.72s-10.39,23.65-10.39,39.51V295.34q0,24.24,10.17,40a26.55,26.55,0,0,0,7.38,7.41c7.93,5.54,19.08,8.31,29.36,8.31q17.18,0,26.45-11a42.4,42.4,0,0,0,2.75-3.58ZM1010,222.47v-1.41c.39.26.8.48,1.19.7Zm17.55-117.55a34.42,34.42,0,0,0-9.18-7.41c-5.29-3-11.69-4.54-19.24-4.54-14.17,0-30,5.23-37,15.72s-10.39,23.65-10.39,39.51V295.34q0,24.24,10.17,40a26.55,26.55,0,0,0,7.38,7.41c7.93,5.54,19.08,8.31,29.36,8.31q17.18,0,26.45-11a42.4,42.4,0,0,0,2.75-3.58ZM1010,222.47v-1.41c.39.26.8.48,1.19.7ZM1123.68,95.82h-5.45V205.34h2a57.62,57.62,0,0,0,11.21-34.26C1131.48,141.88,1128.93,116.92,1123.68,95.82Zm-96.18,9.1a34.42,34.42,0,0,0-9.18-7.41c-5.29-3-11.69-4.54-19.24-4.54-14.17,0-30,5.23-37,15.72s-10.39,23.65-10.39,39.51V295.34q0,24.24,10.17,40a26.55,26.55,0,0,0,7.38,7.41c7.93,5.54,19.08,8.31,29.36,8.31q17.18,0,26.45-11a42.4,42.4,0,0,0,2.75-3.58ZM1010,222.47v-1.41c.39.26.8.48,1.19.7Zm17.55-117.55a34.42,34.42,0,0,0-9.18-7.41c-5.29-3-11.69-4.54-19.24-4.54-14.17,0-30,5.23-37,15.72s-10.39,23.65-10.39,39.51V295.34q0,24.24,10.17,40a26.55,26.55,0,0,0,7.38,7.41c7.93,5.54,19.08,8.31,29.36,8.31q17.18,0,26.45-11a42.4,42.4,0,0,0,2.75-3.58ZM1010,222.47v-1.41c.39.26.8.48,1.19.7Zm17.55-117.55a34.42,34.42,0,0,0-9.18-7.41c-5.29-3-11.69-4.54-19.24-4.54-14.17,0-30,5.23-37,15.72s-10.39,23.65-10.39,39.51V295.34q0,24.24,10.17,40a26.55,26.55,0,0,0,7.38,7.41c7.93,5.54,19.08,8.31,29.36,8.31q17.18,0,26.45-11a42.4,42.4,0,0,0,2.75-3.58ZM1010,222.47v-1.41c.39.26.8.48,1.19.7Zm17.55-117.55a34.42,34.42,0,0,0-9.18-7.41c-5.29-3-11.69-4.54-19.24-4.54-14.17,0-30,5.23-37,15.72s-10.39,23.65-10.39,39.51V295.34q0,24.24,10.17,40a26.55,26.55,0,0,0,7.38,7.41c7.93,5.54,19.08,8.31,29.36,8.31q17.18,0,26.45-11a42.4,42.4,0,0,0,2.75-3.58ZM1010,222.47v-1.41c.39.26.8.48,1.19.7Zm17.55-117.55a34.42,34.42,0,0,0-9.18-7.41c-5.29-3-11.69-4.54-19.24-4.54-14.17,0-30,5.23-37,15.72s-10.39,23.65-10.39,39.51V295.34q0,24.24,10.17,40a26.55,26.55,0,0,0,7.38,7.41c7.93,5.54,19.08,8.31,29.36,8.31q17.18,0,26.45-11a42.4,42.4,0,0,0,2.75-3.58ZM1010,222.47v-1.41c.39.26.8.48,1.19.7Zm76,50-.09-50.65-.08-50.74-.14-109.48h25.62c-.91-1.8-1.86-3.62-2.86-5.33C1095.1,33,1076.19,19.05,1057,10.93,1035.76,2,1014.17,0,999.08,0c-39.28,0-74,13-97.7,36a108.88,108.88,0,0,0-10.32,11.59C875.37,68,865.58,92.47,861.81,120.63l44.41,206,12,55.81H884.35l-.06-.27-18.93-91.61H860v4.77c0,33.6,7.32,62.92,21.79,87.34a147.84,147.84,0,0,0,8.79,13q2.88,3.81,6.1,7.33A114.24,114.24,0,0,0,926,426l10.52,5.2c2.63,1.17,5.32,2.25,8,3.25,3.05,1.11,6.16,2.11,9.33,3l33,5.68q5.8.4,11.75.4h1.29l15.59-.82a140.37,140.37,0,0,0,24.5-4.57l28.7-12.16a111.27,111.27,0,0,0,23.86-18.36c1.54-1.55,3-3.14,4.4-4.77,1-1.19,2-2.4,3-3.64a113.75,113.75,0,0,0,10.89-16.75h-24.79ZM937.26,83c12.66-16.5,36.81-24.77,61.82-24.77,10.73,0,20.19,1.22,28.37,3.73q20.76,6.22,30.44,23.17,15.34,26.91,15.36,86h-33.46q0-14.31-.45-23.58a145.41,145.41,0,0,0-2.71-20.71q-2.25-11.43-6.32-18.1a26,26,0,0,0-2.81-3.77,34.42,34.42,0,0,0-9.18-7.41c-5.29-3-11.69-4.54-19.24-4.54-14.17,0-30,5.23-37,15.72s-10.39,23.65-10.39,39.51V295.34q0,24.24,10.17,40a26.55,26.55,0,0,0,7.38,7.41c7.93,5.54,19.08,8.31,29.36,8.31q17.18,0,26.45-11a42.4,42.4,0,0,0,2.75-3.58,56.14,56.14,0,0,0,9.22-23.09q2.76-15.72,2.73-40.95h33.46c0,13.67-.38,25.31-1.14,35a151.34,151.34,0,0,1-5.65,30.24q-4.5,15.74-12.2,25.49t-21.71,15.94a46.36,46.36,0,0,1-4.66,1.8c-8.37,2.91-18.14,4.38-29.25,4.38A105.55,105.55,0,0,1,976.49,383c-16.39-3.47-30.73-11-39.45-22.48q-11.74-15.48-16.14-37.07a142.17,142.17,0,0,1-2.64-28.15V148.2a139.2,139.2,0,0,1,2.83-28.92Q925.59,98.15,937.26,83Zm73.88,138.77-1.19.71v-1.41C1010.34,221.32,1010.75,221.54,1011.14,221.76Zm16.36-116.84a34.42,34.42,0,0,0-9.18-7.41c-5.29-3-11.69-4.54-19.24-4.54-14.17,0-30,5.23-37,15.72s-10.39,23.65-10.39,39.51V295.34q0,24.24,10.17,40a26.55,26.55,0,0,0,7.38,7.41c7.93,5.54,19.08,8.31,29.36,8.31q17.18,0,26.45-11a42.4,42.4,0,0,0,2.75-3.58ZM1010,222.47v-1.41c.39.26.8.48,1.19.7Zm17.55-117.55a34.42,34.42,0,0,0-9.18-7.41c-5.29-3-11.69-4.54-19.24-4.54-14.17,0-30,5.23-37,15.72s-10.39,23.65-10.39,39.51V295.34q0,24.24,10.17,40a26.55,26.55,0,0,0,7.38,7.41c7.93,5.54,19.08,8.31,29.36,8.31q17.18,0,26.45-11a42.4,42.4,0,0,0,2.75-3.58ZM1010,222.47v-1.41c.39.26.8.48,1.19.7Zm17.55-117.55a34.42,34.42,0,0,0-9.18-7.41c-5.29-3-11.69-4.54-19.24-4.54-14.17,0-30,5.23-37,15.72s-10.39,23.65-10.39,39.51V295.34q0,24.24,10.17,40a26.55,26.55,0,0,0,7.38,7.41c7.93,5.54,19.08,8.31,29.36,8.31q17.18,0,26.45-11a42.4,42.4,0,0,0,2.75-3.58ZM1010,222.47v-1.41c.39.26.8.48,1.19.7Zm17.55-117.55a34.42,34.42,0,0,0-9.18-7.41c-5.29-3-11.69-4.54-19.24-4.54-14.17,0-30,5.23-37,15.72s-10.39,23.65-10.39,39.51V295.34q0,24.24,10.17,40a26.55,26.55,0,0,0,7.38,7.41c7.93,5.54,19.08,8.31,29.36,8.31q17.18,0,26.45-11a42.4,42.4,0,0,0,2.75-3.58ZM1010,222.47v-1.41c.39.26.8.48,1.19.7Zm111.68,17.64h-3.4V347.69h5.87a210,210,0,0,0,6.08-35.74c.85-11.17,1.3-24.45,1.3-39.48A57.66,57.66,0,0,0,1121.63,240.11ZM1027.5,104.92a34.42,34.42,0,0,0-9.18-7.41c-5.29-3-11.69-4.54-19.24-4.54-14.17,0-30,5.23-37,15.72s-10.39,23.65-10.39,39.51V295.34q0,24.24,10.17,40a26.55,26.55,0,0,0,7.38,7.41c7.93,5.54,19.08,8.31,29.36,8.31q17.18,0,26.45-11a42.4,42.4,0,0,0,2.75-3.58ZM1010,222.47v-1.41c.39.26.8.48,1.19.7Zm17.55-117.55a34.42,34.42,0,0,0-9.18-7.41c-5.29-3-11.69-4.54-19.24-4.54-14.17,0-30,5.23-37,15.72s-10.39,23.65-10.39,39.51V295.34q0,24.24,10.17,40a26.55,26.55,0,0,0,7.38,7.41c7.93,5.54,19.08,8.31,29.36,8.31q17.18,0,26.45-11a42.4,42.4,0,0,0,2.75-3.58ZM1010,222.47v-1.41c.39.26.8.48,1.19.7Zm17.55-117.55a34.42,34.42,0,0,0-9.18-7.41c-5.29-3-11.69-4.54-19.24-4.54-14.17,0-30,5.23-37,15.72s-10.39,23.65-10.39,39.51V295.34q0,24.24,10.17,40a26.55,26.55,0,0,0,7.38,7.41c7.93,5.54,19.08,8.31,29.36,8.31q17.18,0,26.45-11a42.4,42.4,0,0,0,2.75-3.58ZM1010,222.47v-1.41c.39.26.8.48,1.19.7Zm17.55-117.55a34.42,34.42,0,0,0-9.18-7.41c-5.29-3-11.69-4.54-19.24-4.54-14.17,0-30,5.23-37,15.72s-10.39,23.65-10.39,39.51V295.34q0,24.24,10.17,40a26.55,26.55,0,0,0,7.38,7.41c7.93,5.54,19.08,8.31,29.36,8.31q17.18,0,26.45-11a42.4,42.4,0,0,0,2.75-3.58ZM1010,222.47v-1.41c.39.26.8.48,1.19.7Zm17.55-117.55a34.42,34.42,0,0,0-9.18-7.41c-5.29-3-11.69-4.54-19.24-4.54-14.17,0-30,5.23-37,15.72s-10.39,23.65-10.39,39.51V295.34q0,24.24,10.17,40a26.55,26.55,0,0,0,7.38,7.41c7.93,5.54,19.08,8.31,29.36,8.31q17.18,0,26.45-11a42.4,42.4,0,0,0,2.75-3.58ZM1010,222.47v-1.41c.39.26.8.48,1.19.7Zm17.55-117.55a34.42,34.42,0,0,0-9.18-7.41c-5.29-3-11.69-4.54-19.24-4.54-14.17,0-30,5.23-37,15.72s-10.39,23.65-10.39,39.51V295.34q0,24.24,10.17,40a26.55,26.55,0,0,0,7.38,7.41c7.93,5.54,19.08,8.31,29.36,8.31q17.18,0,26.45-11a42.4,42.4,0,0,0,2.75-3.58ZM1010,222.47v-1.41c.39.26.8.48,1.19.7Zm17.55-117.55a34.42,34.42,0,0,0-9.18-7.41c-5.29-3-11.69-4.54-19.24-4.54-14.17,0-30,5.23-37,15.72s-10.39,23.65-10.39,39.51V295.34q0,24.24,10.17,40a26.55,26.55,0,0,0,7.38,7.41c7.93,5.54,19.08,8.31,29.36,8.31q17.18,0,26.45-11a42.4,42.4,0,0,0,2.75-3.58ZM1010,222.47v-1.41c.39.26.8.48,1.19.7Zm17.55-117.55a34.42,34.42,0,0,0-9.18-7.41c-5.29-3-11.69-4.54-19.24-4.54-14.17,0-30,5.23-37,15.72s-10.39,23.65-10.39,39.51V295.34q0,24.24,10.17,40a26.55,26.55,0,0,0,7.38,7.41c7.93,5.54,19.08,8.31,29.36,8.31q17.18,0,26.45-11a42.4,42.4,0,0,0,2.75-3.58ZM1010,222.47v-1.41c.39.26.8.48,1.19.7Zm17.55-117.55a34.42,34.42,0,0,0-9.18-7.41c-5.29-3-11.69-4.54-19.24-4.54-14.17,0-30,5.23-37,15.72s-10.39,23.65-10.39,39.51V295.34q0,24.24,10.17,40a26.55,26.55,0,0,0,7.38,7.41c7.93,5.54,19.08,8.31,29.36,8.31q17.18,0,26.45-11a42.4,42.4,0,0,0,2.75-3.58ZM1010,222.47v-1.41c.39.26.8.48,1.19.7Z"/><path class="cls-1" d="M1085.89,221.78l-.08-50.74-12.56,0h-33.46q0-14.31-.45-23.58a145.41,145.41,0,0,0-2.71-20.71q-2.25-11.43-6.32-18.1a26,26,0,0,0-2.81-3.77l.34,231.59a56.14,56.14,0,0,0,9.22-23.09q2.76-15.72,2.73-40.95h33.46l12.73,0Zm0,0-.08-50.74-12.56,0h-33.46q0-14.31-.45-23.58a145.41,145.41,0,0,0-2.71-20.71q-2.25-11.43-6.32-18.1a26,26,0,0,0-2.81-3.77l.34,231.59a56.14,56.14,0,0,0,9.22-23.09q2.76-15.72,2.73-40.95h33.46l12.73,0Zm0,0-.08-50.74-12.56,0h-33.46q0-14.31-.45-23.58a145.41,145.41,0,0,0-2.71-20.71q-2.25-11.43-6.32-18.1a26,26,0,0,0-2.81-3.77l.34,231.59a56.14,56.14,0,0,0,9.22-23.09q2.76-15.72,2.73-40.95h33.46l12.73,0Zm0,0-.08-50.74-12.56,0h-33.46q0-14.31-.45-23.58a145.41,145.41,0,0,0-2.71-20.71q-2.25-11.43-6.32-18.1a26,26,0,0,0-2.81-3.77l.34,231.59a56.14,56.14,0,0,0,9.22-23.09q2.76-15.72,2.73-40.95h33.46l12.73,0Zm0,0-.08-50.74-12.56,0h-33.46q0-14.31-.45-23.58a145.41,145.41,0,0,0-2.71-20.71q-2.25-11.43-6.32-18.1a26,26,0,0,0-2.81-3.77l.34,231.59a56.14,56.14,0,0,0,9.22-23.09q2.76-15.72,2.73-40.95h33.46l12.73,0Zm0,0-.08-50.74-12.56,0h-33.46q0-14.31-.45-23.58a145.41,145.41,0,0,0-2.71-20.71q-2.25-11.43-6.32-18.1a26,26,0,0,0-2.81-3.77l.34,231.59a56.14,56.14,0,0,0,9.22-23.09q2.76-15.72,2.73-40.95h33.46l12.73,0Zm0,0-.08-50.74-12.56,0h-33.46q0-14.31-.45-23.58a145.41,145.41,0,0,0-2.71-20.71q-2.25-11.43-6.32-18.1a26,26,0,0,0-2.81-3.77l.34,231.59a56.14,56.14,0,0,0,9.22-23.09q2.76-15.72,2.73-40.95h33.46l12.73,0Zm0,0-.08-50.74-12.56,0h-33.46q0-14.31-.45-23.58a145.41,145.41,0,0,0-2.71-20.71q-2.25-11.43-6.32-18.1a26,26,0,0,0-2.81-3.77l.34,231.59a56.14,56.14,0,0,0,9.22-23.09q2.76-15.72,2.73-40.95h33.46l12.73,0Zm0,0-.08-50.74-12.56,0h-33.46q0-14.31-.45-23.58a145.41,145.41,0,0,0-2.71-20.71q-2.25-11.43-6.32-18.1a26,26,0,0,0-2.81-3.77l.34,231.59a56.14,56.14,0,0,0,9.22-23.09q2.76-15.72,2.73-40.95h33.46l12.73,0Zm185.51-126V61.56a58.24,58.24,0,0,0-58.22-58.24H1085.67A58,58,0,0,0,1057,10.93a56.6,56.6,0,0,0-12.48,9.48,58.25,58.25,0,0,0-17,41.22V62q20.76,6.22,30.44,23.17,15.34,26.91,15.36,85.95h-33.46q0-14.3-.45-23.57a145.41,145.41,0,0,0-2.71-20.71q-2.25-11.43-6.32-18.1a26,26,0,0,0-2.81-3.77l.34,231.59a56.14,56.14,0,0,0,9.22-23.09q2.76-15.72,2.73-40.95h33.46c0,13.67-.38,25.31-1.14,35a151.34,151.34,0,0,1-5.65,30.24q-4.5,15.74-12.2,25.49t-21.71,15.94a46.36,46.36,0,0,1-4.66,1.8v1.61a57.62,57.62,0,0,0,5,23.62,58.37,58.37,0,0,0,14.5,19.81l25.08,13.12a58.18,58.18,0,0,0,7.39,1.27l.07-.17,84,.5h49.18a58.24,58.24,0,0,0,58.22-58.24V347.69a58.25,58.25,0,0,0-58.22-58.23h-.33a58.16,58.16,0,0,0,27.35-49.35V205.34a58.25,58.25,0,0,0-30.62-51.29h3.6A58.23,58.23,0,0,0,1271.4,95.82Zm-153.17,0V205.34H1182v34.77h-63.73V347.69h95v34.76H1086.11l-.13-110-.09-50.65-.08-50.74-.14-109.48h127.51V95.82Zm-32.34,126-.08-50.74-12.56,0h-33.46q0-14.31-.45-23.58a145.41,145.41,0,0,0-2.71-20.71q-2.25-11.43-6.32-18.1a26,26,0,0,0-2.81-3.77l.34,231.59a56.14,56.14,0,0,0,9.22-23.09q2.76-15.72,2.73-40.95h33.46l12.73,0Zm0,0-.08-50.74-12.56,0h-33.46q0-14.31-.45-23.58a145.41,145.41,0,0,0-2.71-20.71q-2.25-11.43-6.32-18.1a26,26,0,0,0-2.81-3.77l.34,231.59a56.14,56.14,0,0,0,9.22-23.09q2.76-15.72,2.73-40.95h33.46l12.73,0Zm0,0-.08-50.74-12.56,0h-33.46q0-14.31-.45-23.58a145.41,145.41,0,0,0-2.71-20.71q-2.25-11.43-6.32-18.1a26,26,0,0,0-2.81-3.77l.34,231.59a56.14,56.14,0,0,0,9.22-23.09q2.76-15.72,2.73-40.95h33.46l12.73,0Zm0,0-.08-50.74-12.56,0h-33.46q0-14.31-.45-23.58a145.41,145.41,0,0,0-2.71-20.71q-2.25-11.43-6.32-18.1a26,26,0,0,0-2.81-3.77l.34,231.59a56.14,56.14,0,0,0,9.22-23.09q2.76-15.72,2.73-40.95h33.46l12.73,0Zm0,0-.08-50.74-12.56,0h-33.46q0-14.31-.45-23.58a145.41,145.41,0,0,0-2.71-20.71q-2.25-11.43-6.32-18.1a26,26,0,0,0-2.81-3.77l.34,231.59a56.14,56.14,0,0,0,9.22-23.09q2.76-15.72,2.73-40.95h33.46l12.73,0Zm0,0-.08-50.74-12.56,0h-33.46q0-14.31-.45-23.58a145.41,145.41,0,0,0-2.71-20.71q-2.25-11.43-6.32-18.1a26,26,0,0,0-2.81-3.77l.34,231.59a56.14,56.14,0,0,0,9.22-23.09q2.76-15.72,2.73-40.95h33.46l12.73,0Zm0,0-.08-50.74-12.56,0h-33.46q0-14.31-.45-23.58a145.41,145.41,0,0,0-2.71-20.71q-2.25-11.43-6.32-18.1a26,26,0,0,0-2.81-3.77l.34,231.59a56.14,56.14,0,0,0,9.22-23.09q2.76-15.72,2.73-40.95h33.46l12.73,0Zm0,0-.08-50.74-12.56,0h-33.46q0-14.31-.45-23.58a145.41,145.41,0,0,0-2.71-20.71q-2.25-11.43-6.32-18.1a26,26,0,0,0-2.81-3.77l.34,231.59a56.14,56.14,0,0,0,9.22-23.09q2.76-15.72,2.73-40.95h33.46l12.73,0Zm0,0-.08-50.74-12.56,0h-33.46q0-14.31-.45-23.58a145.41,145.41,0,0,0-2.71-20.71q-2.25-11.43-6.32-18.1a26,26,0,0,0-2.81-3.77l.34,231.59a56.14,56.14,0,0,0,9.22-23.09q2.76-15.72,2.73-40.95h33.46l12.73,0Zm0,0-.08-50.74-12.56,0h-33.46q0-14.31-.45-23.58a145.41,145.41,0,0,0-2.71-20.71q-2.25-11.43-6.32-18.1a26,26,0,0,0-2.81-3.77l.34,231.59a56.14,56.14,0,0,0,9.22-23.09q2.76-15.72,2.73-40.95h33.46l12.73,0Z"/></g></g></svg>