<svg xmlns="http://www.w3.org/2000/svg" viewBox="0 0 315.51 315.59"><defs><style>.cls-1{fill:#ffdff2;}</style></defs><g id="Layer_2" data-name="Layer 2"><g id="Layer_1-2" data-name="Layer 1"><path class="cls-1" d="M184.55,130.8l-15,3.64a20.83,20.83,0,0,1-4.89.59,21.38,21.38,0,0,1-11.58-3.47l-3.16-2a28.79,28.79,0,0,1-3.15,5c-.18.23-.37.45-.55.66l38.12,40.38.72.77.23-45.68Zm-48.45.77-.74.33,0,9.1v1.48l.73-.25V131.57Zm48.45-.77-15,3.64a20.83,20.83,0,0,1-4.89.59,21.38,21.38,0,0,1-11.58-3.47l-3.16-2a28.79,28.79,0,0,1-3.15,5c-.18.23-.37.45-.55.66l38.12,40.38.72.77.23-45.68Zm-48.45.77-.74.33,0,9.1v1.48l.73-.25V131.57Zm48.45-.77-15,3.64a20.83,20.83,0,0,1-4.89.59,21.38,21.38,0,0,1-11.58-3.47l-3.16-2a28.79,28.79,0,0,1-3.15,5c-.18.23-.37.45-.55.66l38.12,40.38.72.77.23-45.68Zm-48.45.77-.74.33,0,9.1v1.48l.73-.25V131.57Zm48.45-.77-15,3.64a20.83,20.83,0,0,1-4.89.59,21.38,21.38,0,0,1-11.58-3.47l-3.16-2a28.79,28.79,0,0,1-3.15,5c-.18.23-.37.45-.55.66l38.12,40.38.72.77.23-45.68Zm-48.45.77-.74.33,0,9.1v1.48l.73-.25V131.57Zm48.45-.77-15,3.64a20.83,20.83,0,0,1-4.89.59,21.38,21.38,0,0,1-11.58-3.47l-3.16-2a28.79,28.79,0,0,1-3.15,5c-.18.23-.37.45-.55.66l38.12,40.38.72.77.23-45.68Zm-48.45.77-.74.33,0,9.1v1.48l.73-.25V131.57Zm48.45-.77-15,3.64a20.83,20.83,0,0,1-4.89.59,21.38,21.38,0,0,1-11.58-3.47l-3.16-2a28.79,28.79,0,0,1-3.15,5c-.18.23-.37.45-.55.66l38.12,40.38.72.77.23-45.68Zm-48.45.77-.74.33,0,9.1v1.48l.73-.25V131.57Zm48.45-.77-15,3.64a20.83,20.83,0,0,1-4.89.59,21.38,21.38,0,0,1-11.58-3.47l-3.16-2a28.79,28.79,0,0,1-3.15,5c-.18.23-.37.45-.55.66l38.12,40.38.72.77.23-45.68Zm-49.19,1.1,0,9.1v1.48l.73-.25V131.57ZM315.23,73.38A24.07,24.07,0,0,0,300.3,51.23a24.45,24.45,0,0,0-14.25-1.35L261.39,55l29.35,10.68L165.38,91.71l-.2-.11-3.42-1.88c0,.12-.06.24-.08.36a23.74,23.74,0,0,0-.55,4.94l-.1,21.12-2.88-3-4.94-5.19a24.38,24.38,0,0,0-22.73-7l-.12,0a24.74,24.74,0,0,0-3.77,1.15,23.3,23.3,0,0,0-3.77,1.89l4.29,1.87L115,111.76a23.81,23.81,0,0,0-3.64,12.71l0,12.43,0,21.93,16.68,9.69.25,122.69-.74-.42-16-9.1v9.9a23.94,23.94,0,0,0,9.61,19.11,24.39,24.39,0,0,0,14.65,4.89,24.63,24.63,0,0,0,6.52-.89l155.42-43a24.06,24.06,0,0,0,17.73-23.19ZM160.59,284.78l-24.24,6.77v-.21l-.24-149.11V131.57l0-6.37v-.77l4.71,5,5.42,5.74,38.12,40.38.72.77.23-45.68.17-35.47L289.37,73.57l.73-.15,0,31.76.23,143.36ZM136.1,131.57l-.74.33,0,9.1v1.48l.73-.25V131.57Zm48.45-.77-15,3.64a20.83,20.83,0,0,1-4.89.59,21.38,21.38,0,0,1-11.58-3.47l-3.16-2a28.79,28.79,0,0,1-3.15,5c-.18.23-.37.45-.55.66l38.12,40.38.72.77.23-45.68Zm-48.45.77-.74.33,0,9.1v1.48l.73-.25V131.57Zm48.45-.77-15,3.64a20.83,20.83,0,0,1-4.89.59,21.38,21.38,0,0,1-11.58-3.47l-3.16-2a28.79,28.79,0,0,1-3.15,5c-.18.23-.37.45-.55.66l38.12,40.38.72.77.23-45.68Zm-48.45.77-.74.33,0,9.1v1.48l.73-.25V131.57Zm48.45-.77-15,3.64a20.83,20.83,0,0,1-4.89.59,21.38,21.38,0,0,1-11.58-3.47l-3.16-2a28.79,28.79,0,0,1-3.15,5c-.18.23-.37.45-.55.66l38.12,40.38.72.77.23-45.68Zm-48.45.77-.74.33,0,9.1v1.48l.73-.25V131.57Zm48.45-.77-15,3.64a20.83,20.83,0,0,1-4.89.59,21.38,21.38,0,0,1-11.58-3.47l-3.16-2a28.79,28.79,0,0,1-3.15,5c-.18.23-.37.45-.55.66l38.12,40.38.72.77.23-45.68Zm-48.45.77-.74.33,0,9.1v1.48l.73-.25V131.57Zm48.45-.77-15,3.64a20.83,20.83,0,0,1-4.89.59,21.38,21.38,0,0,1-11.58-3.47l-3.16-2a28.79,28.79,0,0,1-3.15,5c-.18.23-.37.45-.55.66l38.12,40.38.72.77.23-45.68Zm-48.45.77-.74.33,0,9.1v1.48l.73-.25V131.57Zm48.45-.77-15,3.64a20.83,20.83,0,0,1-4.89.59,21.38,21.38,0,0,1-11.58-3.47l-3.16-2a28.79,28.79,0,0,1-3.15,5c-.18.23-.37.45-.55.66l38.12,40.38.72.77.23-45.68Z"/><polygon class="cls-1" points="136.35 291.35 135.62 291.55 135.38 142.48 135.38 141 135.36 131.9 135.35 124.43 136.09 125.2 136.09 131.56 136.11 141.41 136.11 142.23 136.35 291.35"/><polygon class="cls-1" points="289.37 73.42 289.37 73.56 185.45 95.15 185.28 130.63 185.05 176.3 184.32 175.53 184.55 130.8 184.73 95.15 289.37 73.42"/><path class="cls-1" d="M300.3,51.23c-.67-.37-1.36-.71-2.06-1L184,1.69A21.12,21.12,0,0,0,175.74,0a20.83,20.83,0,0,0-4.5.5L19.81,34.14c-8.93,2-16,9.63-18.53,19.54a30.73,30.73,0,0,0-.86,4.85C-.76,70.74,5,82.43,14.64,87.36l9.56,4.9.73.38L24.77,61.5v-.32L122.82,104l4.29,1.87L115,111.76l-27,13.15,23.41,12,8.14,4.17a20.83,20.83,0,0,0,15.9,1.41l.73-.25V131.57l0-6.37v-.77l4.71,5,5.42,5.74c.18-.21.37-.43.55-.66a28.79,28.79,0,0,0,3.15-5l3.16,2A21.38,21.38,0,0,0,164.65,135a20.83,20.83,0,0,0,4.89-.59l15-3.64.73-.18.17-35.47L289.37,73.57l.73-.15,0,31.76,4.77-1.15c10.52-2.55,18.3-12.94,19.08-25.44C314.71,67,309.2,56.14,300.3,51.23ZM165.38,91.71l-.2-.11-3.42-1.88L109.91,61.2l.3.57,5.49,10.36,14.18,26.79-.95-.41L25,52.88l30.05-5.72h0L176,24.13l.47-.09L261.39,55h0l29.35,10.68Z"/><polygon class="cls-1" points="128.93 98.51 129.15 98.92 24.31 52.88 54.85 47.06 54.86 47.06 175.75 24.04 176 24.13 55.09 47.16 55.09 47.16 25.04 52.88 128.93 98.51"/><polygon class="cls-1" points="161.76 89.72 165.18 91.6 164.65 91.71 161.68 90.08 110.21 61.77 109.91 61.2 161.76 89.72"/><path class="cls-1" d="M160.59,284.78l-24.24,6.77v-.21l-.24-149.11v-.83l-.73-.4-9-4.95,9-4.15.74-.33,0-6.37v-.77l4.71,5,4.23-1.94a24.47,24.47,0,0,0,13.13-14.35,22.71,22.71,0,0,0,1.19-7.76,24.07,24.07,0,0,0-15.27-21.53L115.7,72.13l14.18,26.79-.95-.41L25,52.88l30.05-5.72-.23-.09h0L35.66,39.15a26.79,26.79,0,0,0-24.2,2A24.29,24.29,0,0,0,1.28,53.68,22.46,22.46,0,0,0,0,61.3L.93,232.92A23.87,23.87,0,0,0,13.8,253.7l108.74,58.4a26,26,0,0,0,5.27,2.13A26.88,26.88,0,0,0,148,312a23.8,23.8,0,0,0,12.64-20.81Zm-33,6-16-9.1L25.65,232.81,24.93,92.64,24.77,61.5v-.32L122.82,104l4.29,1.87L115,111.76l-27,13.15h0l-19,9.26,42.48,24.66,16.68,9.69.25,122.69Z"/><polygon class="cls-1" points="127.56 290.79 127.56 291.21 111.57 282.1 24.91 232.81 24.2 92.26 24.04 61.18 24.77 61.5 24.93 92.64 25.65 232.81 111.57 281.69 127.56 290.79"/></g></g></svg>